<?xml version="1.0" encoding="UTF-8"?>
<svg id="Layer_1" data-name="Layer 1" xmlns="http://www.w3.org/2000/svg" viewBox="0 0 1080 1350">
  <defs>
    <style>
      .cls-1 {
        fill: #fff;
      }
    </style>
  </defs>
  <path class="cls-1" d="M716.16,276.67l-18.93,19.34,5.57-29.27-38.48-8.13-15.59,73.99,38.56,7.99,1.41-6.76,125.7,30.58v362.5c0,65.51-32.45,126.52-86.8,163.19l-187.57,126.43-187.62-126.43c-54.36-36.67-86.81-97.68-86.81-163.19v-362.5l126.05-30.64,1.42,6.83,38.5-8-15.54-73.98-38.54,8.12,6.18,29.27-20.78-18.94-159.36,38.52v411.32c0,86.22,42.69,166.46,114.2,214.63l222.3,149.85,222.24-149.85c71.51-48.18,114.2-128.41,114.2-214.63v-411.32l-160.31-38.92Z"/>
  <path class="cls-1" d="M714.72,534.58l-174.74-241.25-174.69,241.31c-55.4,76.5-61.45,179.86-10.7,259.5,36.57,57.43,97.9,98.24,173.06,102.14,4.13.17,8.2.29,12.32.29s8.31-.12,12.38-.35c75.16-3.84,136.55-44.7,173.12-102.08,50.75-79.64,44.7-183.06-10.76-259.56ZM663.91,610.03h-61.68l31.33,27.38-44.94,186.49h-98.94l-44.65-185.39,32.61-28.48h-61.5l-14.53-60.17h91.44l46.97,194.69,46.91-194.69h91.44l-14.47,60.17Z"/>
</svg>
