<?xml version="1.0" encoding="UTF-8"?>
<svg id="Layer_1" data-name="Layer 1" xmlns="http://www.w3.org/2000/svg" viewBox="0 0 1350 442.39">
  <defs>
    <style>
      .cls-1 {
        fill: #fff;
      }
    </style>
  </defs>
  <g>
    <path class="cls-1" d="M431.11,352.96v6.35h20.69v-6.35h-20.69Z"/>
    <path class="cls-1" d="M485.26,323.44h-21v53.82h7.69v-16.29h13.3c13.97,0,22.44-7.09,22.44-18.78s-8.47-18.75-22.44-18.75ZM485.03,354.24h-13.07v-24.12h13.07c9.84,0,14.98,4.37,14.98,12.06s-5.14,12.06-14.98,12.06Z"/>
    <path class="cls-1" d="M526.72,370.57v-47.13h-7.69v53.82h36.82v-6.69h-29.13Z"/>
    <path class="cls-1" d="M601.36,323.44v30.27c0,11.93-5.54,17.3-15.22,17.3s-15.15-5.37-15.15-17.3v-30.27h-7.69v30.6c0,15.59,8.6,23.82,22.78,23.82s22.74-8.23,22.74-23.82v-30.6h-7.46Z"/>
    <path class="cls-1" d="M681.79,323.44h-6.28l-22.14,37.83-22.47-37.83h-6.28v53.82h7.36v-39l19.45,32.45h3.56l19.45-32.69.07,39.24h7.39l-.1-53.82Z"/>
    <path class="cls-1" d="M734.26,349.34c4.23-2.08,7.22-6.15,7.22-11.99,0-8.7-6.92-13.91-19.32-13.91h-24.12v53.82h25.67c13.61,0,20.63-5.31,20.63-14.55,0-7.16-4-11.69-10.08-13.37ZM705.74,329.65h15.76c7.83,0,12.3,2.92,12.3,8.6s-4.47,8.63-12.3,8.63h-15.76v-17.23ZM723.41,371h-17.67v-17.9h17.67c8.53,0,13.14,2.75,13.14,9s-4.6,8.9-13.14,8.9Z"/>
    <path class="cls-1" d="M756.26,323.44v53.82h7.69v-53.82h-7.69Z"/>
    <path class="cls-1" d="M818.68,323.44v40.11l-32.28-40.11h-6.32v53.82h7.69v-40.14l32.32,40.14h6.28v-53.82h-7.69Z"/>
    <path class="cls-1" d="M879.82,367.54c-3.83,2.49-8.06,3.46-12.6,3.46-12.4,0-21.37-8.83-21.37-20.66s8.97-20.69,21.43-20.69c6.08,0,11.15,1.91,15.62,6.21l4.77-4.74c-4.94-5.48-12.16-8.33-20.69-8.33-16.7,0-28.82,11.62-28.82,27.55s12.13,27.51,28.69,27.51c7.52,0,14.98-2.32,20.36-6.85v-20.96h-7.39v17.5Z"/>
    <path class="cls-1" d="M898.23,352.96v6.35h20.66v-6.35h-20.66Z"/>
  </g>
  <g>
    <path class="cls-1" d="M394.04,64.53h-84.22l-16.49,216.98h38.16l.24-21.13-20.97-16.06h57.18l2.22,37.19h39.17l-15.29-216.98ZM336.9,206.9l3.8-91-21.37-13.67h41.92l4.87,104.68h-29.23Z"/>
    <path class="cls-1" d="M933.12,64.53h-84.22l-16.49,216.98h38.16l.23-21.13-21.71-16.06h57.92l2.22,37.19h39.17l-15.29-216.98ZM875.98,206.9l3.8-91-21.87-13.67h42.43l4.87,104.68h-29.23Z"/>
    <polygon class="cls-1" points="471.62 281.52 432.49 281.52 432.49 82.41 449.14 64.54 542.94 64.54 542.94 281.52 503.81 281.52 503.81 101.96 444.7 101.96 471.89 116.53 471.62 281.52"/>
    <polygon class="cls-1" points="659.31 281.52 583.37 281.52 566.1 265.22 566.1 81.93 583.37 64.54 659.31 64.54 676.22 81.93 676.22 138.08 636.63 138.08 636.63 101.13 578.69 101.13 606.4 116.55 606.4 245.66 636.27 245.66 636.27 206.9 625.12 206.9 625.12 170.68 676.22 170.68 676.22 265.22 659.31 281.52"/>
    <polygon class="cls-1" points="809.24 281.52 716.18 281.52 699.38 265.5 699.38 64.54 737.51 64.54 737.51 228.06 709.82 244.44 770.65 244.44 770.65 64.54 809.24 64.54 809.24 281.52"/>
    <path class="cls-1" d="M1064.74,195.24l16.83-16.59v-97.92l-16.83-16.19h-93.19v216.98h39.41v-87.14h15.22l20.53,87.14h41.05l-23.01-86.27ZM1043.41,156.84h-33.26v-41.22l-27.41-15.82h60.67v57.04Z"/>
    <path class="cls-1" d="M1199.58,64.53h-88.65v216.98h88.65l21.37-31.81V94.7l-21.37-30.17ZM1181.51,245.13h-31.28v-127.25l-28.52-16.56h59.8s-2.42,143.81,0,143.81Z"/>
    <polygon class="cls-1" points="293.33 64.54 288.87 112.17 248.11 112.17 267.99 127.45 240.07 281.52 181.32 281.52 153.45 127.45 174.16 112.17 135.62 112.17 129.05 64.54 183.31 64.54 211.21 218.67 239.07 64.54 293.33 64.54"/>
  </g>
</svg>
