<?xml version="1.0" encoding="UTF-8"?>
<svg id="Layer_1" data-name="Layer 1" xmlns="http://www.w3.org/2000/svg" viewBox="0 0 1350 1080">
  <defs>
    <style>
      .cls-1 {
        fill: #231f20;
      }
    </style>
  </defs>
  <g>
    <path class="cls-1" d="M754.73,168.61l-8.57,8.75,2.52-13.25-17.42-3.68-7.06,33.48,17.45,3.62.64-3.06,56.89,13.84v164.06c0,29.65-14.69,57.26-39.29,73.86l-84.89,57.22-84.91-57.22c-24.6-16.6-39.29-44.21-39.29-73.86v-164.06l57.05-13.87.64,3.09,17.42-3.62-7.03-33.48-17.44,3.68,2.8,13.25-9.41-8.57-72.12,17.43v186.16c0,39.02,19.32,75.33,51.69,97.14l100.61,67.82,100.58-67.82c32.36-21.81,51.69-58.12,51.69-97.14v-186.16l-72.55-17.62Z"/>
    <path class="cls-1" d="M754.07,285.34l-79.09-109.18-79.06,109.21c-25.07,34.62-27.81,81.4-4.84,117.45,16.55,25.99,44.31,44.46,78.32,46.23,1.87.08,3.71.13,5.58.13s3.76-.05,5.6-.16c34.02-1.74,61.8-20.23,78.35-46.2,22.97-36.04,20.23-82.85-4.87-117.47ZM731.08,319.49h-27.91l14.18,12.39-20.34,84.4h-44.78l-20.21-83.9,14.76-12.89h-27.84l-6.58-27.23h41.38l21.26,88.11,21.23-88.11h41.38l-6.55,27.23Z"/>
  </g>
  <g>
    <path class="cls-1" d="M412.11,892.7h22.3v6.88h-22.3v-6.88Z"/>
    <path class="cls-1" d="M494.66,881.1c0,12.6-9.12,20.22-24.2,20.22h-14.34v17.57h-8.29v-58.01h22.62c15.09,0,24.2,7.62,24.2,20.22ZM486.38,881.1c0-8.29-5.55-13.01-16.16-13.01h-14.09v26.02h14.09c10.61,0,16.16-4.72,16.16-13.01Z"/>
    <path class="cls-1" d="M506.86,860.88h8.29v50.8h31.41v7.21h-39.7v-58.01Z"/>
    <path class="cls-1" d="M554.6,893.86v-32.98h8.29v32.65c0,12.85,5.88,18.65,16.33,18.65s16.41-5.8,16.41-18.65v-32.65h8.04v32.98c0,16.82-9.2,25.69-24.53,25.69s-24.53-8.87-24.53-25.69Z"/>
    <path class="cls-1" d="M674.45,918.89l-.08-42.27-20.97,35.22h-3.81l-20.97-34.98v42.02h-7.96v-58.01h6.8l24.2,40.77,23.87-40.77h6.79l.08,58.01h-7.96Z"/>
    <path class="cls-1" d="M749.72,903.23c0,9.95-7.54,15.66-22.21,15.66h-27.68v-58.01h26.02c13.35,0,20.8,5.64,20.8,15,0,6.3-3.23,10.69-7.79,12.93,6.55,1.82,10.86,6.72,10.86,14.42ZM708.11,867.59v18.56h16.99c8.45,0,13.26-3.15,13.26-9.28s-4.81-9.28-13.26-9.28h-16.99ZM741.35,902.57c0-6.72-4.97-9.7-14.17-9.7h-19.06v19.31h19.06c9.2,0,14.17-2.9,14.17-9.61Z"/>
    <path class="cls-1" d="M762.57,860.88h8.29v58.01h-8.29v-58.01Z"/>
    <path class="cls-1" d="M838.16,860.88v58.01h-6.8l-34.81-43.26v43.26h-8.29v-58.01h6.8l34.81,43.26v-43.26h8.29Z"/>
    <path class="cls-1" d="M895.77,889.55h7.96v22.63c-5.8,4.89-13.84,7.38-21.96,7.38-17.82,0-30.91-12.52-30.91-29.67s13.09-29.67,31.08-29.67c9.2,0,16.99,3.07,22.3,8.95l-5.14,5.14c-4.81-4.64-10.28-6.72-16.82-6.72-13.43,0-23.12,9.37-23.12,22.3s9.7,22.3,23.04,22.3c4.89,0,9.45-1.08,13.59-3.73v-18.9Z"/>
    <path class="cls-1" d="M915.59,892.7h22.3v6.88h-22.3v-6.88Z"/>
  </g>
  <g>
    <path class="cls-1" d="M372.17,581.84h-90.78l-17.78,233.88h41.13l.25-12.2-27.08-27.88h66.12l2.39,40.08h42.22l-16.48-233.88ZM310.58,735.29l4.09-98.1-23.01-14.73h45.18l5.25,112.83h-31.5Z"/>
    <path class="cls-1" d="M953.22,581.84h-90.78l-17.78,233.88h41.13l.25-22.77-27.08-17.31h66.12l2.39,40.08h42.22l-16.48-233.88ZM891.63,735.29l4.09-98.1-23.56-14.73h45.72l5.25,112.83h-31.5Z"/>
    <polygon class="cls-1" points="455.79 815.72 413.61 815.72 413.61 601.1 431.56 581.84 532.66 581.84 532.66 815.72 490.48 815.72 490.48 622.17 426.77 622.17 456.08 637.87 455.79 815.72"/>
    <polygon class="cls-1" points="658.09 815.72 576.24 815.72 557.62 798.15 557.62 600.58 576.24 581.84 658.09 581.84 676.32 600.58 676.32 661.1 633.65 661.1 633.65 621.27 571.2 621.27 601.07 637.9 601.07 777.06 633.27 777.06 633.27 735.28 621.24 735.28 621.24 696.24 676.32 696.24 676.32 798.15 658.09 815.72"/>
    <polygon class="cls-1" points="819.7 815.72 719.39 815.72 701.29 798.45 701.29 581.84 742.39 581.84 742.39 758.1 712.54 775.75 778.11 775.75 778.11 581.84 819.7 581.84 819.7 815.72"/>
    <path class="cls-1" d="M1095.1,722.71l18.14-17.89v-105.52l-18.14-17.45h-100.45v233.88h42.47v-93.92h16.4l22.12,93.92h44.25l-24.8-93.01ZM1072.11,681.32h-35.85v-44.42l-29.55-17.05h65.39v61.47Z"/>
    <path class="cls-1" d="M1240.43,581.84h-95.56v233.88h95.56l23.03-34.3v-167.07l-23.03-32.51ZM1220.95,776.5h-33.71v-137.17l-30.74-17.84h64.45s-2.61,155.01,0,155.01Z"/>
    <polygon class="cls-1" points="263.61 581.84 258.8 633.17 214.88 633.17 236.31 649.64 206.2 815.72 142.88 815.72 112.84 649.64 135.16 633.17 93.62 633.17 86.54 581.84 145.03 581.84 175.1 747.97 205.13 581.84 263.61 581.84"/>
  </g>
</svg>
